<svg xmlns="http://www.w3.org/2000/svg" viewBox="0 0 26 23" width="23px" height="23px" data-test-icon="account">
    <path fill="inherit" d="M4.2 19.6l.144-1.175.47-.47.724-.797.76-.362.725-.362.905-.29.651-.361h4.959l1.919.072.833.109 1.339.543s.543.362.688.434c.145.073.869.76.869.76l.76.797.154 1.102-.661 1.178-.724.724-1.267.616-1.267.47-1.665.435L12.1 23l-2.181.131-1.557-.434-1.303-.507-1.52-.724-.978-.833L4.2 19.6M8.125 7.5l.313-.969.437-.875.563-.468.78-.532.595-.312.843-.188 1.188-.031.75.25.656.344.594.656.687.625.25.688.313.562.125.781.062.969v.906l-.375.875-.406.906-.656.844-.625.469-.906.5-.97.063h-1.53l-.532-.376-.781-.468-.5-.75-.469-.719-.281-.75-.313-.719V8.97l.032-.75z"></path>
    <path fill="currentColor" d="M12.1 0C5.5 0 .1 5.4.1 12c0 3.1 1.2 6 3.2 8.1 0 .1.1.1.1.1 2.2 2.3 5.3 3.8 8.7 3.8 6.6 0 12-5.4 12-12s-5.4-12-12-12zm0 1c6.1 0 11 4.9 11 11 0 2.6-.9 4.9-2.4 6.8-1.2-2.1-3.4-3.4-5.8-3.4H9.2c-2.4 0-4.6 1.3-5.8 3.3C2 16.9 1.1 14.6 1.1 12c0-6.1 4.9-11 11-11zm0 22c-3.1 0-5.9-1.3-7.9-3.4 1-1.9 2.9-3.2 5.1-3.2H15c2.2 0 4.1 1.2 5.1 3.2-2.1 2.1-4.9 3.4-8 3.4z"></path>
</svg>