<svg xmlns="http://www.w3.org/2000/svg" width="20.098" height="24.682" viewBox="0 0 20.098 24.682">
  <path id="Path_399" data-name="Path 399" d="M23.275,6.091a.761.761,0,0,0-.54-.233h-4.41V4.779A4.8,4.8,0,0,0,13.436.059a4.79,4.79,0,0,0-4.86,4.721V5.858H4.137a.712.712,0,0,0-.54.233.757.757,0,0,0-.21.554L4.5,20.894a4.235,4.235,0,0,0,4.26,3.847H18a4.254,4.254,0,0,0,4.26-3.817l1.23-14.308A.786.786,0,0,0,23.275,6.091ZM9.446,4.779A3.908,3.908,0,0,1,13.436.933,3.9,3.9,0,0,1,17.4,4.779V5.858H9.446ZM18,23.9a3.351,3.351,0,0,0,3.36-3l1.23-14.133H4.317l1.08,14.1A3.334,3.334,0,0,0,8.757,23.9Z" transform="translate(-3.387 -0.059)" fill="#24272a" fill-rule="evenodd"/>
</svg>
