<svg xmlns="http://www.w3.org/2000/svg" xmlns:xlink="http://www.w3.org/1999/xlink" width="37.99" height="37.99" viewBox="0 0 37.99 37.99">
  <defs>
    <filter id="Path_263" x="0" y="0" width="37.99" height="37.99" filterUnits="userSpaceOnUse">
      <feOffset dx="3" dy="3" input="SourceAlpha"/>
      <feGaussianBlur stdDeviation="1.5" result="blur"/>
      <feFlood flood-opacity="0.294"/>
      <feComposite operator="in" in2="blur"/>
      <feComposite in="SourceGraphic"/>
    </filter>
  </defs>
  <g id="Chat" transform="translate(-1141.5 -758.505)">
    <g transform="matrix(1, 0, 0, 1, 1141.5, 758.51)" filter="url(#Path_263)">
      <path id="Path_263-2" data-name="Path 263" d="M14.495,0A14.495,14.495,0,1,1,0,14.495,14.495,14.495,0,0,1,14.495,0Z" transform="translate(1.5 1.5)"/>
    </g>
    <path id="Path_264" data-name="Path 264" d="M385.609,5183.937c-1.579.907-3,1.389-2.883.491s.525-2.3-.4-2.225-8.274-1.524-8.066-7.442,6.1-7.526,9.4-7.517,9.485,2.529,9.323,7.517S385.609,5183.937,385.609,5183.937Z" transform="translate(773.837 -4400.92)" fill="#fff"/>
    <circle id="Ellipse_27" data-name="Ellipse 27" cx="1.5" cy="1.5" r="1.5" transform="translate(1152 772.005)"/>
    <circle id="Ellipse_28" data-name="Ellipse 28" cx="1.5" cy="1.5" r="1.5" transform="translate(1156 772.005)"/>
    <circle id="Ellipse_29" data-name="Ellipse 29" cx="1.5" cy="1.5" r="1.5" transform="translate(1160 772.005)"/>
  </g>
</svg>
