<svg xmlns="http://www.w3.org/2000/svg" xmlns:xlink="http://www.w3.org/1999/xlink" width="23" height="23" viewBox="0 0 23 23">
  <defs>
    <clipPath id="clip-path">
      <rect id="Rectangle_623" data-name="Rectangle 623" width="23" height="23" transform="translate(0.659 0.5)" fill="#fff"/>
    </clipPath>
  </defs>
  <g id="Group_220" data-name="Group 220" transform="translate(-0.659 -0.5)" clip-path="url(#clip-path)">
    <path id="Path_344" data-name="Path 344" d="M22.669,20.2l-3-2.942a1.612,1.612,0,0,0-1.712-.335.025.025,0,0,0-.026-.026l-1.449-1.419a8.742,8.742,0,0,0-.369-12.154,9.2,9.2,0,0,0-12.8,0,8.75,8.75,0,0,0,0,12.541,9.195,9.195,0,0,0,12.407.335l1.423,1.393a1.51,1.51,0,0,0,.263,1.858l3,2.942a1.577,1.577,0,0,0,1.106.464,1.532,1.532,0,0,0,1.106-.464A1.466,1.466,0,0,0,22.669,20.2ZM4.1,15.114a7.737,7.737,0,0,1,0-11.07,8.067,8.067,0,0,1,11.275,0,7.714,7.714,0,0,1,.026,11.07A8.083,8.083,0,0,1,4.1,15.114Zm17.1,6.554a.517.517,0,0,0,.738,0,.522.522,0,0,0,0-.748l-3-2.916a.517.517,0,0,0-.738,0,.492.492,0,0,0,0,.723Z" transform="translate(0 -0.038)" fill="#24272a" fill-rule="evenodd"/>
  </g>
</svg>
