<svg xmlns="http://www.w3.org/2000/svg" xmlns:xlink="http://www.w3.org/1999/xlink" width="246" height="19" viewBox="0 0 211.074 14.418">
  <defs>
    <clipPath id="clip-path">
      <rect id="Rectangle_653" data-name="Rectangle 653" width="246" height="16" fill="none"/>
    </clipPath>
  </defs>
  <g id="Logo_AEO" data-name="Logo AEO" clip-path="url(#clip-path)">
    <path id="Path_383" data-name="Path 383" d="M8.723,8.9l-2-4.887L4.726,8.9ZM9.5,10.874H3.935l-1.63,3.813H0L6.009.806l1.45,0c1.095,2.8,6.012,13.879,6.012,13.879H11.156Z" transform="translate(0 -0.535)" fill="#231f20"/>
    <path id="Path_384" data-name="Path 384" d="M481.1,8.914l-2-4.887L477.1,8.914Zm.773,1.969h-5.561L474.683,14.7h-2.305L478.387.815l1.45,0c1.095,2.8,6.012,13.88,6.012,13.88h-2.314Z" transform="translate(-317.213 -0.541)" fill="#231f20"/>
    <path id="Path_385" data-name="Path 385" d="M126.836,2.772H121.4V6.108h5.278V8.077H121.4v4.64h5.436v1.969h-7.482V.8h7.482Z" transform="translate(-80.149 -0.532)" fill="#231f20"/>
    <path id="Path_386" data-name="Path 386" d="M164.921,7.177h.649q2.907,0,2.907-2.275,0-2.131-2.828-2.131h-.729Zm2.547,1.592,4.2,5.917h-2.5L165.29,9h-.369v5.682h-2.046V.8h2.4a5.886,5.886,0,0,1,3.882,1.035,3.838,3.838,0,0,1,1.317,3.039,4.008,4.008,0,0,1-.826,2.536,3.668,3.668,0,0,1-2.178,1.358" transform="translate(-109.375 -0.532)" fill="#231f20"/>
    <rect id="Rectangle_652" data-name="Rectangle 652" width="2.046" height="13.884" transform="translate(68.486 0.27)" fill="#231f20"/>
    <path id="Path_387" data-name="Path 387" d="M244.278,1.016V3.5a5.606,5.606,0,0,0-3.671-1.519,4.621,4.621,0,0,0-3.522,1.538,5.252,5.252,0,0,0-1.44,3.741,5.124,5.124,0,0,0,1.44,3.687,4.7,4.7,0,0,0,3.53,1.5,4.254,4.254,0,0,0,1.836-.36,5.285,5.285,0,0,0,.874-.486,10.443,10.443,0,0,0,.953-.737v2.526a7.259,7.259,0,0,1-3.689,1.016,6.724,6.724,0,0,1-4.962-2.076,6.97,6.97,0,0,1-2.046-5.054,7.232,7.232,0,0,1,1.713-4.73,6.935,6.935,0,0,1,8.984-1.529" transform="translate(-156.855 0)" fill="#231f20"/>
    <path id="Path_388" data-name="Path 388" d="M441.052,2.781h-5.436V6.117h5.278V8.086h-5.278v4.64h5.436v1.969H433.57V.811h7.482Z" transform="translate(-291.153 -0.538)" fill="#231f20"/>
    <path id="Path_389" data-name="Path 389" d="M531.03,6.933h5.6v.459a9.683,9.683,0,0,1-.36,2.77,5.92,5.92,0,0,1-1.185,2.085,6.08,6.08,0,0,1-4.8,2.177,6.529,6.529,0,0,1-4.874-2.1,7.062,7.062,0,0,1-2.029-5.071,7.046,7.046,0,0,1,2.064-5.125A7,7,0,0,1,533.436.675a8.608,8.608,0,0,1,2.591,2.158l-1.458,1.429A4.92,4.92,0,0,0,530.5,1.987a4.8,4.8,0,0,0-3.609,1.52,5.138,5.138,0,0,0-1.458,3.741,4.973,4.973,0,0,0,1.625,3.822,4.785,4.785,0,0,0,3.293,1.393,4.031,4.031,0,0,0,2.713-1.043A3.739,3.739,0,0,0,534.411,8.9H531.03Z" transform="translate(-351.463 -0.006)" fill="#231f20"/>
    <path id="Path_390" data-name="Path 390" d="M584.63.811V12.725h3.987v1.969h-6.033V.811Z" transform="translate(-391.219 -0.538)" fill="#231f20"/>
    <path id="Path_391" data-name="Path 391" d="M619.808.811V14.695h7.482V12.725h-5.436V8.086h5.278V6.117h-5.278V2.781h5.436V.811Z" transform="translate(-416.216 -0.538)" fill="#231f20"/>
    <path id="Path_392" data-name="Path 392" d="M291.049,8.9l-2-4.887L287.052,8.9Zm.773,1.969h-5.561l-1.629,3.813h-2.306L288.335.806l1.45,0c1.095,2.8,6.012,13.879,6.012,13.879h-2.314Z" transform="translate(-189.589 -0.535)" fill="#231f20"/>
    <path id="Path_393" data-name="Path 393" d="M58.727,6.106,62.352,14.5h.557L66.64,6.115l1.308,8.38h2.1L67.645.515H67.06l-4.4,9.844L58.414.515h-.589L55.152,14.5h2.116Z" transform="translate(-37.036 -0.342)" fill="#231f20"/>
    <path id="Path_394" data-name="Path 394" d="M351.725,14.5V.612h-2.046v9.656L340.154.515h-.791V14.5h2.046V4.743l9.527,9.756Z" transform="translate(-227.891 -0.342)" fill="#231f20"/>
  </g>
</svg>
