<svg xmlns="http://www.w3.org/2000/svg" viewBox="0 0 78 32" class="aeo-icon aeo-icon-brand-max-aerie logo-svg logo-svg-aerie" data-test-icon="brand-max-aerie"><path d="M18.025 12.65c0-.05 0-.05-.05-.05-.025.05.025.1.05.05zM18 12.475c-.025.025-.075-.05-.025.025.025 0 .025 0 .025-.025zM76.275 13.5c.075.05 0-.025 0 0zM22.05 31.4c-.025.025-.025.025.025.05.025-.025 0-.05-.025-.05zM76.3 20.8c-.875.925-1.675 1.6-2.625 2.425-1.75 1.475-3.1 2.625-5 3.95-1.85 1.325-4.15 2.75-6.3 1.6-1.075-.575-2-1.5-2.325-2.6-.475-1.525-.425-3.175-.575-3.325-.525.525-2.45 2.775-2.825 3.175-1.025 1.025-1.25 1.2-1.725 1.65-.45.425-1.325 1.175-1.925 1.375-.625.2-1.25.275-1.9.15-.35-.05-.75-.425-1-.65-.475-.475-.65-1.15-.725-1.775-.125-1.325 0-1.75-.35-1.95-.05-.05-2.85 2.8-3.175 3.05-1.675 1.35-2.775 2.05-4.175 2.975-.85.575-3.45.875-4.275.575-1.65-.6-1.925-2.4-1.925-3.325 0-.55.05-.975.2-1.5.15-.575.325-1.1.525-1.65.425-1.025 1.075-2.1 1.65-3.05.7-1.15 2.425-4.35 2.625-4.725.225-.45.475-.775.6-1.275.15-.575.125-.775-.525-.65-.4.075-.825.075-1.2.25-.475.2-.65.675-.9 1.075-.325.5-.725 1.075-1.125 1.55-.4.5-2.975 3.325-3.325 3.85-.325.45-3.3 3.725-4.175 4.425-.45.35-1.3 1.225-1.75 1.575-.55.45-.975.675-1.6 1.05-.4.25-1.4.85-1.925 1.125-5.25 2.65-6.425 1.15-6.7.925-1.75-1.45-1.65-5.1-2-5.025-.45.1-2.375 2.125-2.85 2.65-.225.275-1.725 2.075-2.125 2.375-.9.65-1.975.325-2.45-.725-.6-1.325-.25-2.775-.425-2.85-.225.05-1.025.9-1.2 1.075-.275.275-1.975 2.225-2.65 2.575-.725.4-1.05.875-2.15.5-.45-.15-.8-.725-1.1-1.075-.45-.5-.95-2.5-.5-4.125.35-1.2.675-2.925 1.225-3.925.85-1.575 1.4-2.525 2.5-3.95.475-.625 3-3.1 3.6-3.55.8-.6 1.575-1.225 2.425-1.75.625-.4 1.05-.65 1.8-.775.425-.075 1.45-.15 2.95.85.2.15.25-.15.45-.35.7-.65 1.425-.85 2.525-.7.475.075.375 1.1.2 1.525-.375 2.15-1.7 3.85-3 5.55-1.575 2.075-3.05 4.275-4.125 6.65-.375.85-1.025 2.55-.725 3.475.125.35 1.125-.725 1.175-.775.35-.45.9-.975 1.25-1.45.625-.85 1.625-2.025 2.225-2.725s1.75-1.7 2.425-2.55c1.65-2.1 2.65-3.4 4.35-5.275.425-.475 1.45-1.5 2.15-1.975a66.157 66.157 0 001.75-1.25c1-.725 1.575-1.1 2.625-1.725 4.475-2.7 5.625-1.475 5.85-1.075.2.325.3.8.35 1.125.125.825-.15 2.075-.475 2.85-.425 1-1.475 2.1-2.3 2.8-.725.65-1.475 1.2-2.25 1.825-1.075.875-2.25 1.5-3.325 2.175-.975.625-1.75 1.35-2.625 2.125-.85.725-1.55 1.725-2.225 2.6-.475.6-1 2.325.25 2.25 1.15-.05 2.775-.35 5.05-1.85 2.35-1.55 3.75-2.975 4.75-3.85.85-.725 3.55-3.475 4.425-4.55.725-.875 1.65-1.8 2.15-2.9.35-.75-1.45-1.7-1.4-2.975.025-.425.175-.7.35-1.075 1.025-2.225 3.525-1.125 3.675-.35.05.25.075.475.075.7.025.25-.1 1.3.25 1.35.525.075 1.125-.2 1.65-.25.65-.05 1.3-.025 1.95-.05.775-.05 1.9.175 2.3.925-.025.1.675 1.05.05 2.1-.525.875-1.75 2.675-2.05 3.025-.65.775-.825.925-1.425 1.725-1.425 1.925-2.375 2.95-3.6 5.25-.5.95-1.15 1.875-1.125 2.975 0 .45.175.875.6 1.075.35.175 1 .175 1.625-.125.425-.2 1-.5 1.525-.85.45-.3 1.475-1.175 1.875-1.55.725-.7.95-.75 1.7-1.45.875-.775 1.55-1.525 2.35-2.4.725-.775 1.4-1.5 2-2.425.7-1.075 1.175-1.9 1.825-2.825.3-.425.525-.95.75-1.425.275-.55 2.675-3.925 3.025-4.35.65-.75 1.25-1.575 2.05-2.175.325-.25.65-.275 1-.45a2.036 2.036 0 011.25-.225c.7-.1 1.375.475.925 1.225-1 1.675-1.95 3.45-2.95 5.05-.7 1.1-1.4 2.225-2.125 3.325-.65 1-1.05 2.125-1.7 3.125a8.445 8.445 0 00-.9 1.85c-.1.3-.4 1.125-.15 1.425.55.625 1.85-.15 2.3-.525.875-.725 2-1.725 2.75-2.575.6-.7 2.375-2.925 3-3.775 1.9-2.65 6.625-6.45 7.025-6.75 1.45-1.125 3.55-2.45 4.725-3.025.75-.375 2.1-1.25 3.025-1.075 1.05.225 1.575 1.025 1.675 1.85.15 1.275-.275 2.025-.45 2.475C76.45 14.2 74.35 16 72.6 17.35c-1.925 1.5-3.9 2.425-5.95 3.7-.55.35-1.225.925-1.675 1.4-.4.4-1.625 1.6-1.475 4 .075 1.35 3.95-.6 4.55-1.225.2-.2 3.1-2.5 4.725-4.25.9-.975 1.7-2.05 2.7-2.9.375-.325 1.325-.75 1.925-.25.9.85-.45 2.3-1.1 2.975zm-.025-7.3c.075.05 0-.025 0 0zm-7.725 3.475c.75-.475 1.5-.95 2.175-1.5.675-.575 1.325-1.175 2.025-1.725.85-.65 1.5-1.425 1.6-2.225.125-1.15-3.575 1.475-3.9 1.725-1.175.95-2.925 1.875-3.275 3.375-.125.575.775.725 1.375.35zM24.4 18.8c.15.35 1.725-.45 2.2-.75.675-.425 1.375-1.05 2-1.525.525-.4 1.075-.875 1.6-1.35.625-.55 1.25-1.025 1.125-2.05-.05-.475-1.525.4-1.75.55-5.125 3.225-5.4 4.9-5.175 5.125zm-14.25 2.95s1.425-2.175 1.775-3.025c.175-.4.675-1.725.75-2 .275-.9.525-1.35.05-2.225-.25-.45-1.175-.075-1.375.175-.525.675-1.225 1.375-1.675 1.95-.6.725-.975 1.225-1.4 1.8-.675.875-1.3 1.775-1.9 2.7-.225.375-.525.8-.7 1.175-.15.3-.725 1.25-.875 1.5a38.412 38.412 0 00-1.475 2.6c-.425.825-.9 1.75-1.075 2.65-.15.85.05 2.075.925 1.5.375-.25.9-.575 1.225-.9.3-.3 1.125-1.05 1.425-1.375.825-.975 1.3-1.725 1.825-2.6.95-1.55 1.475-2.4 2.5-3.925zm52.2-16.375c.125.1.925.125 1.075.125.4.025 1.025-.775 1.25-1.075.375-.45.775-.9 1.125-1.375.3-.625.675-1.125.625-1.875-.05-.55-.35-.825-.8-.875-1.225.625-2.675 1.95-3.25 3.375-.175.4-.425 1.4-.025 1.7z"></path></svg>