<!--?xml version="1.0" encoding="utf-8"?-->
<!-- Svg Vector Icons : http://www.onlinewebfonts.com/icon -->

<svg version="1.1" xmlns="http://www.w3.org/2000/svg" xmlns:xlink="http://www.w3.org/1999/xlink" x="0px" y="0px" viewBox="0 0 256 256" enable-background="new 0 0 256 256" xml:space="preserve">
<metadata> Svg Vector Icons : http://www.onlinewebfonts.com/icon </metadata>
<g><g><path fill="#ffffff" data-title="Layer 0" xs="0" d="M222.2,48.5C188.8,83.9,99,180.6,99,180.6s-44.2-42.7-66.3-64.3c-5.4-4.9-13.8-4.9-18.7,0l0,0c-5.4,5.4-5.4,13.7,0,18.7l73.6,72.2l0.5,1l0,0l0,0c1,1,2,1.5,2.9,2l2,1c2,1,3.9,1,5.9,1c2.5,0,4.4-0.5,6.4-1.5c1-0.5,1.5-1,2.5-1.5c1-0.5,2-1,2.9-2L242.4,66.2c4.9-5.4,4.9-13.8-0.5-19.1l0,0C236.5,42.7,227.6,42.7,222.2,48.5z"/></g></g>
</svg>