<svg xmlns="http://www.w3.org/2000/svg" width="23" height="23" viewBox="2 1 6 9">
    <g fill="#000" fill-rule="nonzero">
        <path d="M6.506 4.91c0-.793-.625-1.433-1.394-1.433-.768 0-1.393.64-1.393 1.433 0 .792.625 1.432 1.393 1.432.769 0 1.394-.64 1.394-1.432zm.445 0c0 1.035-.822 1.876-1.839 1.876-1.016 0-1.838-.841-1.838-1.876 0-1.036.822-1.877 1.838-1.877 1.017 0 1.839.841 1.839 1.877z"/>
        <path d="M5.514 9.116c.405-.352.81-.734 1.188-1.133.565-.596 1.016-1.177 1.312-1.716.248-.453.377-.862.377-1.217 0-1.858-1.469-3.362-3.279-3.362-1.81 0-3.279 1.504-3.279 3.362 0 .355.13.764.378 1.217.296.54.747 1.12 1.312 1.716a16.877 16.877 0 0 0 1.58 1.462 4.89 4.89 0 0 0 .41-.33zM8.836 5.05c0 .44-.152.918-.432 1.43-.317.578-.79 1.187-1.38 1.809a17.314 17.314 0 0 1-1.776 1.624.222.222 0 0 1-.272 0 16.745 16.745 0 0 1-.557-.462C4.005 9.091 3.59 8.7 3.2 8.29c-.589-.622-1.062-1.23-1.379-1.809-.28-.512-.432-.99-.432-1.43 0-2.102 1.666-3.807 3.723-3.807 2.058 0 3.724 1.705 3.724 3.807z"/>
    </g>
</svg>
