<svg xmlns="http://www.w3.org/2000/svg" width="33" height="33" viewBox="0 0 25 24">
    <g fill="#000" fill-rule="nonzero">
        <path d="M12.75 11.792a3.542 3.542 0 100-7.084 3.542 3.542 0 000 7.084zm0 .708a4.25 4.25 0 110-8.5 4.25 4.25 0 010 8.5z"></path>
        <path d="M12.75 12.727c-2.587 0-4.266 1.2-5.184 3.17a7.92 7.92 0 00-.632 2.129c-.04.253-.065.489-.079.7a4.47 4.47 0 00-.011.274v.273h11.812V19c0-.052-.003-.145-.011-.274a8.108 8.108 0 00-.079-.7 7.918 7.918 0 00-.632-2.13c-.919-1.969-2.597-3.169-5.184-3.169zm0-.727c2.843 0 4.88 1.297 5.966 3.626.332.711.56 1.487.686 2.303.04.262.07.516.085.756.009.127.013.238.013.315v1H6v-1c0-.077.004-.188.013-.315.016-.24.044-.494.085-.756a8.551 8.551 0 01.685-2.303C7.87 13.297 9.906 12 12.75 12z"></path>
    </g>
</svg>