<?xml version="1.0" encoding="utf-8"?>
<!-- Generator: Adobe Illustrator 26.0.1, SVG Export Plug-In . SVG Version: 6.00 Build 0)  -->
<svg version="1.1" id="Layer_1" xmlns="http://www.w3.org/2000/svg" xmlns:xlink="http://www.w3.org/1999/xlink" x="0px" y="0px"
	 viewBox="0 0 1000 1000" style="enable-background:new 0 0 1000 1000;" xml:space="preserve">
<g>
	<path d="M546.1,627.9c-48.2,0-96.3,0-144.5,0c-26.8,0-42.7-11.6-50-38.2c-15.8-58-31.1-116.1-46.6-174.2
		c-14.9-55.9-29.8-111.9-44.4-167.9c-2.2-8.5-5.8-12.3-15-10.8c-7.1,1.2-14.5,0.8-21.8,1c-10.3,0.2-16.7-4.9-17.4-14
		c-0.9-9.9,4.4-17.5,14.6-18c17.8-0.9,35.7-0.9,53.6-0.5c2.4,0.1,6,4,6.8,6.8c11.5,40.2,22.9,80.5,33.8,120.9
		c2.6,9.9,6.5,14.1,17.7,14.1c147.1-0.4,294.1,0,441.2-0.6c16.7-0.1,21.9,9.7,18.7,23.6c-17.2,72.6-34,145.4-51.4,217.9
		c-6.7,27.9-23.2,40-51.9,40C641.8,627.9,594,627.9,546.1,627.9z M329.4,379c1,4.9,1.5,8.8,2.5,12.6c3.1,12,6.4,23.9,9.6,35.9
		c13.6,51.4,27.2,102.7,40.7,154.1c2.6,9.8,8.4,14.4,18.9,14.4c97.1-0.2,194.1-0.1,291.2-0.1c10.1,0,16-4.5,18.4-14.8
		c14.1-59.9,28.7-119.6,43-179.4c1.7-7.2,3-14.5,4.7-22.7C615,379,473.3,379,329.4,379z"/>
	<path d="M439.6,794.9c-37.6-0.1-67.6-30-67.4-67.2c0.1-37.8,30.9-68,68.5-67.4c37,0.6,67.5,30.2,66.9,66.9
		C506.9,773.4,469.5,796.6,439.6,794.9z M439.5,689.5c-20.9-0.2-37.6,16.9-37.7,38.5c-0.1,20.8,17.4,38.2,38.4,38
		c20.4-0.2,37.7-17.3,38-37.5C478.4,707,461.2,689.7,439.5,689.5z"/>
	<path d="M571.8,727.3c0.2-37.8,30-67.5,67.3-67.1c38.1,0.3,66.6,30,66.4,69.1c-0.2,37.7-29.6,65.9-68.4,65.6
		C600.1,794.6,571.6,765.1,571.8,727.3z M638.9,689.5c-20.3-0.2-38.8,17.9-38.9,38.1c-0.1,19.8,19,38.6,38.9,38.4
		c19.6-0.2,37.8-18.3,38.3-38C677.8,708.2,659.4,689.8,638.9,689.5z"/>
</g>
</svg>
