<?xml version="1.0" encoding="utf-8"?>
<!-- Generator: Adobe Illustrator 26.0.1, SVG Export Plug-In . SVG Version: 6.00 Build 0)  -->
<svg version="1.1" id="Layer_1" xmlns="http://www.w3.org/2000/svg" xmlns:xlink="http://www.w3.org/1999/xlink" x="0px" y="0px"
	 viewBox="0 0 1000 1000" style="enable-background:new 0 0 1000 1000;" xml:space="preserve">
<g>
	<path d="M407,558.9c-29.4-44.7-57.4-83.8-81.5-125.2c-16.4-28.1-26.5-58.3-0.5-89.7c8.3-10,8.2-28.5,8.5-43.2
		c1.5-73.5,66.9-143.4,169.9-139.9c93.4,3.2,150.9,59.3,159,152.5c1.1,12.9,6.6,26.4,13.4,37.7c13.8,22.7,10.4,59.1-9.1,88.2
		c-25.1,37.2-49.2,75-75.9,116c14,7.2,27.7,14.7,41.8,21.4c32.7,15.5,66.6,28.8,98.2,46.3c69.8,38.7,98.8,102.9,107.7,178.9
		c3,25.6-6.4,37.4-33.2,37.4c-203.9-0.4-407.8-0.4-611.7-0.1c-27.4,0-34.2-13.4-32-38.5c9-104.3,68.4-168.6,161.4-207.1
		C350.6,582.1,378.4,570.7,407,558.9z M802.4,797.7c-14.1-34.5-21.4-65.9-38.1-91c-47.5-71-135.8-78.8-201.9-121.8
		c-11-7.1-35.3,6.5-53.6,10.2c-4.9,1-10.9,3.1-14.8,1.2c-40.9-19.1-75.8-3.6-110.8,16.8c-13.8,8-30.8,10.4-44.7,18.3
		c-27.9,15.9-56.2,31.8-81.4,51.5c-36.2,28.3-48.4,69.3-52.8,114.9C402.3,797.7,597.9,797.7,802.4,797.7z M498,200.3
		c-76.2-0.3-121.9,43.9-126.2,120.6c-0.9,15.6,0,37-9.3,45.3c-19.9,17.9-10.2,32.2-1.9,47.4c10.5,19.2,22.1,38.1,35.2,55.6
		c17.3,23.2,34.2,47.6,55.6,66.7c26.5,23.7,64.4,24.4,88.9,1.5c23.9-22.4,43.3-49.7,63.5-75.8c11.5-14.8,22.2-30.7,30.1-47.7
		c5.3-11.5,8.5-26.2,6.3-38.3c-3.4-19.5-16.2-37.8-17.7-57.2C616.8,241.7,574.9,200.6,498,200.3z"/>
</g>
</svg>
