<!--?xml version="1.0" encoding="utf-8"?-->
<!-- Svg Vector Icons : http://www.onlinewebfonts.com/icon -->

<svg version="1.1" xmlns="http://www.w3.org/2000/svg" xmlns:xlink="http://www.w3.org/1999/xlink" x="0px" y="0px" viewBox="0 0 256 256" enable-background="new 0 0 256 256" xml:space="preserve">
<metadata> Svg Vector Icons : http://www.onlinewebfonts.com/icon </metadata>
<g><g><path fill="#828282" data-title="Layer 0" xs="0" d="M128,10C62.8,10,10,62.8,10,128c0,65.2,52.8,118,118,118c65.2,0,118-52.8,118-118C246,62.8,193.2,10,128,10z M136.5,205.9c-3.3,3.1-7.2,4.7-11.8,4.7c-4.6,0-8.5-1.6-11.7-4.7c-3.3-3.1-4.9-6.9-4.9-11.2s1.6-8,4.9-11.1c3.3-3.1,7.2-4.6,11.7-4.6c4.6,0,8.5,1.5,11.8,4.6c3.3,3.1,5,6.8,5,11.1S139.8,202.8,136.5,205.9z M167,109.2c-3.1,5.6-8,11.2-14.7,16.8c-6.7,5.6-10.8,9.8-12.2,12.7c-1.3,2.9-2,7.4-2,13.4c0,10.1-4.7,15.2-14,15.2c-9.8,0-14.7-5.5-14.7-16.4c0-9.8,1-16.8,2.9-21.2c2-4.4,5.6-8.4,11.1-12c7.2-4.9,12.4-9.6,15.7-14.1s4.8-11.2,4.8-19.9c0-4.1-1.4-7.6-4.2-10.6c-2.8-3-6.2-4.5-10-4.5s-7.5,1.7-10.8,5c-3.3,3.3-5.6,7.9-7,13.7c-1.6,7.1-6,10.6-13.2,10.6c-5,0-8.6-1.4-10.9-4.3c-2.2-2.8-3.3-6.5-3.3-10.9c0-4.4,1.5-9.8,4.5-16.2c3-6.4,7.9-11.6,14.5-15.4c6.7-3.9,14.8-5.9,24.4-5.9c13.4,0,24,3.7,32,11c7.9,7.3,11.9,16.6,11.9,27.7C171.6,95.3,170.1,103.7,167,109.2L167,109.2z"/></g></g>
</svg>