<!DOCTYPE svg PUBLIC "-//W3C//DTD SVG 1.1//EN" "http://www.w3.org/Graphics/SVG/1.1/DTD/svg11.dtd">

<!-- Uploaded to: SVG Repo, www.svgrepo.com, Transformed by: SVG Repo Mixer Tools -->
<svg fill="#828282" width="40px" height="30px" viewBox="0 0 36.00 36.00" version="1.1" preserveAspectRatio="xMidYMid meet" xmlns="http://www.w3.org/2000/svg" xmlns:xlink="http://www.w3.org/1999/xlink" stroke="#828282" transform="matrix(1, 0, 0, 1, 0, 0)" stroke-width="0.00036">

<g id="SVGRepo_bgCarrier" stroke-width="0"/>

<g id="SVGRepo_tracerCarrier" stroke-linecap="round" stroke-linejoin="round" stroke="#a25d5dCCCCCC" stroke-width="0.36"/>

<g id="SVGRepo_iconCarrier"> <title>sort-by-line</title> <path d="M28.54,13H7.46a1,1,0,0,1,0-2H28.54a1,1,0,0,1,0,2Z" class="clr-i-outline clr-i-outline-path-1"/>

<path d="M21.17,19H7.46a1,1,0,0,1,0-2H21.17a1,1,0,0,1,0,2Z" class="clr-i-outline clr-i-outline-path-2"/>

<path d="M13.74,25H7.46a1,1,0,0,1,0-2h6.28a1,1,0,0,1,0,2Z" class="clr-i-outline clr-i-outline-path-3"/> <rect x="0" y="0" width="36" height="36" fill-opacity="0"/> </g>

</svg>