<svg xmlns="http://www.w3.org/2000/svg" xmlns:xlink="http://www.w3.org/1999/xlink" width="23.401" height="19.891" viewBox="0 0 23.401 19.891">
  <defs>
    <clipPath id="clip-path">
      <rect id="Rectangle_82" data-name="Rectangle 82" width="23.401" height="19.891" fill="#fff" stroke="#767676" stroke-linecap="round" stroke-linejoin="round" stroke-width="1"/>
    </clipPath>
  </defs>
  <g id="Group_96" data-name="Group 96" clip-path="url(#clip-path)">
    <path id="Path_118" data-name="Path 118" d="M37.276,20.709A5.776,5.776,0,0,0,31.448,15a5.844,5.844,0,0,0-5.31,3.356A5.842,5.842,0,0,0,20.829,15,5.776,5.776,0,0,0,15,20.709a5.564,5.564,0,0,0,.331,1.894,5.763,5.763,0,0,0,1.733,2.458l8.891,8.648a.281.281,0,0,0,.2.08.284.284,0,0,0,.2-.08l9.221-8.971h0a5.706,5.706,0,0,0,1.36-2.093A5.582,5.582,0,0,0,37.276,20.709Z" transform="translate(-14.437 -14.449)" fill="#fff" stroke="#767676" stroke-linecap="round" stroke-linejoin="round" stroke-width="1"/>
  </g>
</svg>